<?xml version="1.0" encoding="UTF-8" standalone="no"?>
<svg
   version="1.1"
   viewBox="0 0 320 320"
   id="svg4"
   sodipodi:docname="logo_favicon.svg"
   width="320"
   height="320"
   inkscape:version="1.3 (0e150ed6c4, 2023-07-21)"
   xmlns:inkscape="http://www.inkscape.org/namespaces/inkscape"
   xmlns:sodipodi="http://sodipodi.sourceforge.net/DTD/sodipodi-0.dtd"
   xmlns="http://www.w3.org/2000/svg"
   xmlns:svg="http://www.w3.org/2000/svg">
  <defs
     id="defs4" />
  <sodipodi:namedview
     id="namedview4"
     pagecolor="#505050"
     bordercolor="#eeeeee"
     borderopacity="1"
     inkscape:showpageshadow="0"
     inkscape:pageopacity="0"
     inkscape:pagecheckerboard="0"
     inkscape:deskcolor="#505050"
     inkscape:zoom="1.1229282"
     inkscape:cx="112.65191"
     inkscape:cy="179.44157"
     inkscape:window-width="1920"
     inkscape:window-height="1009"
     inkscape:window-x="1912"
     inkscape:window-y="-8"
     inkscape:window-maximized="1"
     inkscape:current-layer="svg4" />
  <path
     id="path4"
     d="m 170.02031,42.727207 c -6.89998,-0.0067 -13.57288,0.205341 -20.01953,0.638672 -37.69992,2.499996 -73.53034,20.599987 -85.320313,58.669921 -5.68999,18.35996 -3.670451,41.70066 6.019533,58.14062 11.23998,19.07996 36.95129,28.07922 57.78125,28.19922 15.08663,0.0867 30.5363,0.11032 46.34961,0.0703 3.89998,-0.01 8.18939,0.34047 11.85937,1.73047 7.59,2.86 7.85953,13.29947 3.01953,18.18945 -4.07998,4.12 -11.79923,5.24977 -17.44921,5.25977 -46.59325,0.08 -93.45041,0.0913 -140.570318,0.0312 -0.386502,-2.2e-4 -0.731995,0.23826 -0.869141,0.59961 L 7.2898409,276.74667 c -0.09835,0.24815 0.08464,0.51753 0.351563,0.51953 57.4598831,0.0133 113.8058361,0.007 169.0390661,-0.0195 22.36996,-0.01 46.58988,-4.46941 64.83984,-17.35937 10.70665,-7.57331 18.46794,-17.71835 23.28125,-30.43164 5.08667,-13.45331 7.95605,-26.51924 8.60938,-39.19922 0.69333,-13.34665 -2.39312,-25.76335 -9.25977,-37.25 -8.25998,-13.79998 -25.0098,-22.44063 -40.75976,-24.39063 -7.24,-0.9 -13.75746,-1.36197 -19.55079,-1.38867 -14.53329,-0.08 -29.3163,-0.0882 -44.34961,-0.0215 -7.43998,0.03 -17.39062,-1.25948 -16.39062,-11.43946 0.38,-3.89998 2.30792,-7.02557 5.78125,-9.3789 4.25,-2.87 10.75822,-2.58008 15.9082,-2.58008 35.50822,-0.002 89.17508,-6.4e-4 133.38672,0 l 14.56055,-61.068304 z" />
</svg>
