<?xml version="1.0" encoding="UTF-8"?>
<svg version="1.1" viewBox="0 0 1448 480" xmlns="http://www.w3.org/2000/svg">
<g transform="translate(-.0013351 -483.98)">
<path d="m1115.2 575.49 55.74-0.01q0.72 0 0.55 0.7l-15.4 65.44a0.4 0.4 0 0 1-0.39 0.3h-56.15a0.52 0.52 0 0 0-0.51 0.41q-8.51 37.42-16.35 71.64c-2.35 10.23-2.94 22.5 6.81 28.73 4.84 3.09 13.8 3.81 19.52 3.82q82.66 0.04 158.25-0.06 6.86-0.01 14.48-0.76c8.82-0.87 17.94-3.87 17.75-14.1-0.16-8.77-8.74-11.04-15.9-11.07q-16.6-0.06-34.24 0.08c-19.24 0.15-40.71-1.97-57.25-12.31-11.38-7.12-18.83-20.51-21.13-33.74q-5.79-33.38 10.78-61.7c4.8-8.21 10.64-14.86 18.82-20.25q19.59-12.91 42.48-16.16 7.3-1.04 17.88-1.02 86.53 0.14 165.14 0.02a0.45 0.45 0 0 1 0.42 0.61l-22.96 59.43q-0.21 0.55-0.8 0.55-69.53-0.05-138.04 0.01c-3.95 0.01-10.03 0.64-13.07 3.14-6.06 5-7.31 16.68 2.54 18.89q6.32 1.42 13.74 1.42 18.04-0.02 35.38-0.02 7.12-0.01 14.21 0.66c11.45 1.09 24.25 2.95 34.47 8.49 16.98 9.22 24.95 24.65 26.39 43.62q3.02 39.67-23.69 68.91c-11.42 12.5-25.17 19.02-41.3 22.52-17.95 3.89-36.78 5.66-55.29 5.64q-96.62-0.05-192.76-0.04c-7.18 0-15-0.24-21.13-0.88q-20.2-2.11-33.63-17.95c-10.06-11.86-12.34-26.72-10.63-42.02 0.63-5.63 1.26-11.46 2.61-17.09q27.52-114.5 53.39-222.3 0.16-0.66 0.84-0.66l73.92 0.05a0.4 0.4 0 0 1 0.39 0.3q0.1 0.37-0.21 0.61a0.24 0.29 72.3 0 0-0.09 0.14l-15.89 65.62a0.32 0.31 7.1 0 0 0.31 0.39z"/>
<path d="m707.63 815.9c-34.12 4.49-72.39-0.84-100.5-22.02-18.25-13.75-30.32-31.7-34.13-54.15q-5.45-32.09 4.99-62.75 12.96-38.06 41.76-63.99c39.51-35.58 95.47-52.17 147.92-41.3 30.37 6.29 57.21 22.61 69.58 51.76 10 23.59 9.71 51.71 3.57 76.52q-8.68 35.06-34.33 65.78-11.21 13.44-22.27 21.34c-22.35 15.96-49.09 25.2-76.59 28.81zm-55.61-131.91c-4.16 15.93-4.68 30.84 1.26 46.23 4.08 10.57 10.89 17.61 20.79 22.64q12.76 6.48 26.44 5.83c14.13-0.67 27.47-3.86 38.98-12.01q12.26-8.68 21.41-24.19c9.64-16.36 14.66-35.7 12.97-54.76-2.2-24.97-20.5-41.97-44.99-43.86-22.24-1.71-41.35 7.43-56.79 23.12-9.9 10.07-16.52 23.37-20.07 37z"/>
<path d="m950.62 651.87c-6.03 3.83-9.7 11.01-12.33 17.63q-3.74 9.44-6.15 19.3-11.76 48.08-28.83 119.68-0.18 0.78-0.98 0.78h-73.35a0.16 0.16 0 0 1-0.15-0.2q19.22-79.92 37.3-154.23 1.26-5.17 4.46-13.6c5.7-15.04 12.64-29.51 23.79-39.73 10.03-9.2 22.78-17.76 35.86-20.98 14.26-3.51 28.97-4.87 43.52-5.4q23.47-0.86 45.57-0.69a0.31 0.31 0 0 1 0.3 0.39l-16.19 67.2a0.78 0.78 0 0 1-0.78 0.59q-20.18-0.85-37.86 3.43-8.05 1.95-14.18 5.83z"/>
<path d="m389.04 743.07q0.74-0.17 1.5-0.16 23.21 0.18 45.76 0.01c20.76-0.15 39.39-8.18 51.19-25.52 7.22-10.62 12.5-24.37 13.46-37.19 1.15-15.38-6.65-32.61-21.32-39.21q-10.89-4.89-22.45-4.89-138.82-0.01-278.17 0c-5.15 0-11.66-0.29-15.91 2.58q-5.21 3.53-5.78 9.38c-1 10.18 8.95 11.47 16.39 11.44q22.55-0.1 44.35 0.02 8.69 0.04 19.55 1.39c15.75 1.95 32.5 10.59 40.76 24.39q10.3 17.23 9.26 37.25-0.98 19.02-8.61 39.2-7.22 19.07-23.28 30.43c-18.25 12.89-42.47 17.35-64.84 17.36q-82.85 0.04-169.04 0.02a0.38 0.38 0 0 1-0.35-0.52l23.53-62.49a0.93 0.93 0 0 1 0.87-0.6q70.68 0.09 140.57-0.03c5.65-0.01 13.37-1.14 17.45-5.26 4.84-4.89 4.57-15.33-3.02-18.19-3.67-1.39-7.96-1.74-11.86-1.73q-23.72 0.06-46.35-0.07c-20.83-0.12-46.54-9.12-57.78-28.2-9.69-16.44-11.71-39.78-6.02-58.14 11.79-38.07 47.62-56.17 85.32-58.67q9.67-0.65 20.02-0.64 131.15 0.06 266.78 0.03c16.93-0.01 33.62 0.92 50.35 3.79q18.3 3.15 35.25 15.79 22.24 16.59 28.18 44.72 2.6 12.3 1.31 28.19-1.72 21.38-8.71 45.07-5.08 17.21-13.25 30.68-11.34 18.67-25.87 32.29-24.1 22.59-58.23 29.73-19.1 3.99-41.59 3.96-22.19-0.03-45.84-0.06-0.58 0-0.71 0.56l-30.9 129.2q-0.14 0.59-0.75 0.59l-73.44 0.01a0.32 0.32 0 0 1-0.31-0.39l66.69-279.71a0.71 0.7 6.7 0 1 0.69-0.54l73.78 0.01a0.39 0.39 0 0 1 0.38 0.48l-19.78 82.87a0.64 0.64 0 0 0 0.77 0.77z"/>
</g>
</svg>
